<svg xmlns="http://www.w3.org/2000/svg" viewBox="0 0 160 120" role="img" aria-labelledby="fishFallbackTitle">
  <title id="fishFallbackTitle">Frozen fish placeholder</title>
  <rect width="160" height="120" rx="20" fill="#eff6ff" />
  <path d="M28 60c12-10 32-12 44-10 10 2 16 8 26 10 8 2 18 1 28-5 7-4 14-9 20-14" fill="#cfe7ff" />
  <path d="M28 60c12 10 32 12 44 10 10-2 16-8 26-10 8-2 18-1 28 5 7 4 14 9 20 14" fill="#dbeafe" />
  <path d="M34 56s18-12 36-10c18 2 20 10 34 14" stroke="#0f172a" stroke-width="4" fill="none" stroke-linecap="round" />
  <circle cx="42" cy="62" r="5" fill="#0f172a" />
  <path d="M118 47c-3 9-5 20 4 25" stroke="#0f172a" stroke-width="4" fill="none" stroke-linecap="round" />
  <path d="M20 50c8 12 18 18 32 18" stroke="#38bdf8" stroke-width="5" fill="none" stroke-linecap="round" />
</svg>
