<svg xmlns="http://www.w3.org/2000/svg" viewBox="0 0 120 120" role="img" aria-labelledby="fallbackTitle">
  <title id="fallbackTitle">Frozen product placeholder</title>
  <rect width="120" height="120" rx="20" fill="#eff6ff" />
  <g transform="translate(20 24)">
    <rect x="0" y="20" width="80" height="60" rx="14" fill="#ffffff" stroke="#38bdf8" stroke-width="5" />
    <path d="M20 46c6-10 18-14 34-8 6 2 12 8 12 16s-8 18-20 18c-12 0-20-7-26-14-2-3-4-6-4-10s2-7 4-10" fill="#a5f3fc" />
    <circle cx="44" cy="44" r="5" fill="#0f172a" />
    <path d="M22 52c4 2 8 1 12-1 4-1 7-4 9-8" stroke="#0f172a" stroke-width="3" fill="none" stroke-linecap="round" />
    <path d="M16 34c4-3 12-4 18-1" stroke="#0f172a" stroke-width="3" fill="none" stroke-linecap="round" />
    <path d="M18 60c6-2 14-2 22 2" stroke="#0f172a" stroke-width="3" fill="none" stroke-linecap="round" />
    <path d="M14 6h52l6 18H8L14 6Z" fill="#38bdf8" opacity="0.95" />
    <path d="M16 8c6-2 18-2 34 4" stroke="#ffffff" stroke-width="3" fill="none" stroke-linecap="round" />
  </g>
</svg>
