<svg xmlns="http://www.w3.org/2000/svg" viewBox="0 0 160 120" role="img" aria-labelledby="seafoodFallbackTitle">
  <title id="seafoodFallbackTitle">Frozen seafood placeholder</title>
  <rect width="160" height="120" rx="20" fill="#eef2ff" />
  <path d="M34 66c12-16 28-22 46-20 18 2 24 16 38 20 10 3 20 0 28-6" fill="#dbeafe" />
  <path d="M34 66c12 16 28 22 46 20 18-2 24-16 38-20 10-3 20 0 28 6" fill="#c7d2fe" />
  <path d="M54 78c10 5 22 4 34-4 10-7 18-18 30-20" stroke="#4338ca" stroke-width="4" fill="none" stroke-linecap="round" />
  <circle cx="44" cy="54" r="6" fill="#312e81" />
  <circle cx="116" cy="50" r="7" fill="#3730a3" />
  <path d="M80 24c8 10 18 14 30 12" stroke="#4338ca" stroke-width="4" fill="none" stroke-linecap="round" />
</svg>
